<mxfile host="app.diagrams.net" modified="2024-01-15T16:12:39.221Z" agent="Mozilla/5.0 (X11; Ubuntu; Linux x86_64; rv:121.0) Gecko/20100101 Firefox/121.0" etag="ptPV6zvwYqQjRJioJMR7" version="22.1.18" type="device">
  <diagram name="Page-1" id="E5AxCyOhZKjhce2MvHdj">
    <mxGraphModel dx="3290" dy="1312" grid="1" gridSize="5" guides="1" tooltips="1" connect="1" arrows="1" fold="1" page="1" pageScale="1" pageWidth="850" pageHeight="1100" math="0" shadow="0">
      <root>
        <mxCell id="0" />
        <mxCell id="1" parent="0" />
        <mxCell id="ir3scniFZbBamXwvJh3l-74" value="&lt;div&gt;&lt;br&gt;&lt;/div&gt;&lt;div&gt;&lt;br&gt;&lt;/div&gt;&lt;div&gt;&lt;br&gt;&lt;/div&gt;&lt;div&gt;&lt;br&gt;&lt;/div&gt;&lt;div&gt;&lt;br&gt;&lt;/div&gt;&lt;div&gt;&lt;br&gt;&lt;/div&gt;&lt;div&gt;&lt;br&gt;&lt;/div&gt;&lt;div&gt;&lt;br&gt;&lt;/div&gt;&lt;div&gt;&lt;br&gt;&lt;/div&gt;&lt;div&gt;&lt;br&gt;&lt;/div&gt;&lt;div&gt;&lt;br&gt;&lt;/div&gt;&lt;div&gt;&lt;br&gt;&lt;/div&gt;&lt;div&gt;&lt;br&gt;&lt;/div&gt;&lt;div&gt;&lt;br&gt;&lt;/div&gt;&lt;div&gt;&lt;br&gt;&lt;/div&gt;&lt;div&gt;&lt;br&gt;&lt;/div&gt;&lt;div&gt;&lt;br&gt;&lt;/div&gt;&lt;div&gt;&lt;br&gt;&lt;/div&gt;&lt;div&gt;&lt;br&gt;&lt;/div&gt;" style="rounded=1;whiteSpace=wrap;html=1;dashed=1;movable=1;resizable=1;rotatable=1;deletable=1;editable=1;locked=0;connectable=1;strokeWidth=2;" parent="1" vertex="1">
          <mxGeometry x="245" y="1350" width="675" height="310" as="geometry" />
        </mxCell>
        <mxCell id="ir3scniFZbBamXwvJh3l-37" value="&lt;div style=&quot;font-size: 16px;&quot;&gt;&lt;font style=&quot;font-size: 16px;&quot;&gt;&lt;br&gt;&lt;/font&gt;&lt;/div&gt;&lt;div style=&quot;font-size: 16px;&quot;&gt;&lt;font style=&quot;font-size: 16px;&quot;&gt;&lt;br&gt;&lt;/font&gt;&lt;/div&gt;&lt;div style=&quot;font-size: 16px;&quot;&gt;&lt;font style=&quot;font-size: 16px;&quot;&gt;&lt;br&gt;&lt;/font&gt;&lt;/div&gt;&lt;div style=&quot;font-size: 16px;&quot;&gt;&lt;font style=&quot;font-size: 16px;&quot;&gt;&lt;br&gt;&lt;/font&gt;&lt;/div&gt;&lt;div style=&quot;font-size: 16px;&quot;&gt;&lt;font style=&quot;font-size: 16px;&quot;&gt;&lt;br&gt;&lt;/font&gt;&lt;/div&gt;&lt;div style=&quot;font-size: 16px;&quot;&gt;&lt;font style=&quot;font-size: 16px;&quot;&gt;&lt;br&gt;&lt;/font&gt;&lt;/div&gt;&lt;div style=&quot;font-size: 16px;&quot;&gt;&lt;font style=&quot;font-size: 16px;&quot;&gt;&lt;br&gt;&lt;/font&gt;&lt;/div&gt;&lt;div style=&quot;font-size: 16px;&quot;&gt;&lt;font style=&quot;font-size: 16px;&quot;&gt;&lt;br&gt;&lt;/font&gt;&lt;/div&gt;&lt;div style=&quot;font-size: 16px;&quot;&gt;&lt;font style=&quot;font-size: 16px;&quot;&gt;&lt;br&gt;&lt;/font&gt;&lt;/div&gt;&lt;div style=&quot;font-size: 16px;&quot;&gt;&lt;font style=&quot;font-size: 16px;&quot;&gt;&lt;b&gt;packet Forwarder&lt;/b&gt;&lt;/font&gt;&lt;/div&gt;" style="rounded=1;whiteSpace=wrap;html=1;dashed=1;movable=1;resizable=1;rotatable=1;deletable=1;editable=1;locked=0;connectable=1;strokeWidth=2;" parent="1" vertex="1">
          <mxGeometry x="720" y="1420" width="180" height="220" as="geometry" />
        </mxCell>
        <mxCell id="ir3scniFZbBamXwvJh3l-1" value="Node 2" style="ellipse;whiteSpace=wrap;html=1;aspect=fixed;" parent="1" vertex="1">
          <mxGeometry x="130" y="1380" width="60" height="60" as="geometry" />
        </mxCell>
        <mxCell id="ir3scniFZbBamXwvJh3l-2" value="Node 1" style="ellipse;whiteSpace=wrap;html=1;aspect=fixed;" parent="1" vertex="1">
          <mxGeometry x="60" y="1380" width="60" height="60" as="geometry" />
        </mxCell>
        <mxCell id="ir3scniFZbBamXwvJh3l-93" style="edgeStyle=orthogonalEdgeStyle;rounded=0;orthogonalLoop=1;jettySize=auto;html=1;exitX=0;exitY=0;exitDx=0;exitDy=32.5;exitPerimeter=0;entryX=1;entryY=0.5;entryDx=0;entryDy=0;" parent="1" source="ir3scniFZbBamXwvJh3l-32" target="ir3scniFZbBamXwvJh3l-92" edge="1">
          <mxGeometry relative="1" as="geometry" />
        </mxCell>
        <mxCell id="ir3scniFZbBamXwvJh3l-94" style="edgeStyle=orthogonalEdgeStyle;rounded=0;orthogonalLoop=1;jettySize=auto;html=1;exitX=0;exitY=0;exitDx=0;exitDy=67.5;exitPerimeter=0;entryX=1;entryY=0.5;entryDx=0;entryDy=0;" parent="1" source="ir3scniFZbBamXwvJh3l-32" target="ir3scniFZbBamXwvJh3l-91" edge="1">
          <mxGeometry relative="1" as="geometry" />
        </mxCell>
        <mxCell id="ir3scniFZbBamXwvJh3l-32" value="NETWORK SERVER OUTPUT QUEUE" style="shape=cylinder3;whiteSpace=wrap;html=1;boundedLbl=1;backgroundOutline=1;size=15;" parent="1" vertex="1">
          <mxGeometry x="797.5" y="1490" width="70" height="100" as="geometry" />
        </mxCell>
        <mxCell id="ir3scniFZbBamXwvJh3l-91" value="&lt;div&gt;-calculate FCntDown&lt;/div&gt;&lt;div&gt;-encrypt the payload&lt;/div&gt;&lt;div&gt;-calculate the MIC&lt;br&gt;&lt;/div&gt;&lt;div&gt;-build the LoRa-M packet&lt;br&gt;&lt;/div&gt;" style="rounded=0;whiteSpace=wrap;html=1;" parent="1" vertex="1">
          <mxGeometry x="500" y="1540" width="150" height="110" as="geometry" />
        </mxCell>
        <mxCell id="ir3scniFZbBamXwvJh3l-92" value="&lt;div&gt;-calcualte the MIC&lt;/div&gt;&lt;div&gt;-encrypt the fields&lt;br&gt;&lt;/div&gt;&lt;div&gt;-build the LoRa-M packet&lt;/div&gt;" style="rounded=0;whiteSpace=wrap;html=1;" parent="1" vertex="1">
          <mxGeometry x="500" y="1430" width="150" height="60" as="geometry" />
        </mxCell>
        <mxCell id="ir3scniFZbBamXwvJh3l-95" value="Downlink Registration Acknowledgement" style="text;html=1;strokeColor=none;fillColor=none;align=center;verticalAlign=middle;whiteSpace=wrap;rounded=0;" parent="1" vertex="1">
          <mxGeometry x="742.5" y="1445" width="60" height="30" as="geometry" />
        </mxCell>
        <mxCell id="ir3scniFZbBamXwvJh3l-96" value="&lt;div&gt;Downlink&lt;/div&gt;&lt;div&gt;Data&lt;br&gt;&lt;/div&gt;" style="text;html=1;strokeColor=none;fillColor=none;align=center;verticalAlign=middle;whiteSpace=wrap;rounded=0;" parent="1" vertex="1">
          <mxGeometry x="730" y="1570" width="60" height="30" as="geometry" />
        </mxCell>
        <mxCell id="ir3scniFZbBamXwvJh3l-103" style="edgeStyle=orthogonalEdgeStyle;rounded=0;orthogonalLoop=1;jettySize=auto;html=1;exitX=0;exitY=0;exitDx=0;exitDy=60;exitPerimeter=0;entryX=0.5;entryY=1;entryDx=0;entryDy=0;" parent="1" source="ir3scniFZbBamXwvJh3l-97" target="ir3scniFZbBamXwvJh3l-1" edge="1">
          <mxGeometry relative="1" as="geometry" />
        </mxCell>
        <mxCell id="ir3scniFZbBamXwvJh3l-97" value="NODE 2 QUEUE" style="shape=cylinder3;whiteSpace=wrap;html=1;boundedLbl=1;backgroundOutline=1;size=15;" parent="1" vertex="1">
          <mxGeometry x="260" y="1400" width="70" height="90" as="geometry" />
        </mxCell>
        <mxCell id="ir3scniFZbBamXwvJh3l-104" style="edgeStyle=orthogonalEdgeStyle;rounded=0;orthogonalLoop=1;jettySize=auto;html=1;exitX=0;exitY=0.5;exitDx=0;exitDy=0;exitPerimeter=0;entryX=0.5;entryY=1;entryDx=0;entryDy=0;" parent="1" source="ir3scniFZbBamXwvJh3l-98" target="ir3scniFZbBamXwvJh3l-2" edge="1">
          <mxGeometry relative="1" as="geometry" />
        </mxCell>
        <mxCell id="ir3scniFZbBamXwvJh3l-98" value="NODE 1 QUEUE" style="shape=cylinder3;whiteSpace=wrap;html=1;boundedLbl=1;backgroundOutline=1;size=15;" parent="1" vertex="1">
          <mxGeometry x="260" y="1520" width="70" height="90" as="geometry" />
        </mxCell>
        <mxCell id="ir3scniFZbBamXwvJh3l-99" style="edgeStyle=orthogonalEdgeStyle;rounded=0;orthogonalLoop=1;jettySize=auto;html=1;exitX=0;exitY=0.5;exitDx=0;exitDy=0;entryX=1;entryY=0;entryDx=0;entryDy=60;entryPerimeter=0;" parent="1" source="ir3scniFZbBamXwvJh3l-91" target="ir3scniFZbBamXwvJh3l-98" edge="1">
          <mxGeometry relative="1" as="geometry" />
        </mxCell>
        <mxCell id="ir3scniFZbBamXwvJh3l-100" style="edgeStyle=orthogonalEdgeStyle;rounded=0;orthogonalLoop=1;jettySize=auto;html=1;exitX=0;exitY=0.25;exitDx=0;exitDy=0;entryX=1;entryY=0;entryDx=0;entryDy=60;entryPerimeter=0;" parent="1" source="ir3scniFZbBamXwvJh3l-91" target="ir3scniFZbBamXwvJh3l-97" edge="1">
          <mxGeometry relative="1" as="geometry">
            <Array as="points">
              <mxPoint x="460" y="1568" />
              <mxPoint x="460" y="1460" />
            </Array>
          </mxGeometry>
        </mxCell>
        <mxCell id="ir3scniFZbBamXwvJh3l-101" style="edgeStyle=orthogonalEdgeStyle;rounded=0;orthogonalLoop=1;jettySize=auto;html=1;exitX=0;exitY=0.25;exitDx=0;exitDy=0;entryX=1;entryY=0;entryDx=0;entryDy=30;entryPerimeter=0;" parent="1" source="ir3scniFZbBamXwvJh3l-92" target="ir3scniFZbBamXwvJh3l-97" edge="1">
          <mxGeometry relative="1" as="geometry" />
        </mxCell>
        <mxCell id="ir3scniFZbBamXwvJh3l-102" style="edgeStyle=orthogonalEdgeStyle;rounded=0;orthogonalLoop=1;jettySize=auto;html=1;exitX=0;exitY=0.75;exitDx=0;exitDy=0;entryX=1;entryY=0;entryDx=0;entryDy=30;entryPerimeter=0;" parent="1" source="ir3scniFZbBamXwvJh3l-92" target="ir3scniFZbBamXwvJh3l-98" edge="1">
          <mxGeometry relative="1" as="geometry">
            <Array as="points">
              <mxPoint x="415" y="1475" />
              <mxPoint x="415" y="1550" />
            </Array>
          </mxGeometry>
        </mxCell>
        <mxCell id="ir3scniFZbBamXwvJh3l-123" value="&amp;nbsp;" style="text;whiteSpace=wrap;html=1;" parent="1" vertex="1">
          <mxGeometry x="580" y="1830" width="40" height="40" as="geometry" />
        </mxCell>
        <mxCell id="tfgUsdt2ixnzsKASo8Zw-6" value="868.1MHz" style="text;html=1;strokeColor=none;fillColor=none;align=center;verticalAlign=middle;whiteSpace=wrap;rounded=0;" parent="1" vertex="1">
          <mxGeometry x="140" y="1540" width="60" height="30" as="geometry" />
        </mxCell>
        <mxCell id="tfgUsdt2ixnzsKASo8Zw-7" value="868.1MHz" style="text;html=1;strokeColor=none;fillColor=none;align=center;verticalAlign=middle;whiteSpace=wrap;rounded=0;" parent="1" vertex="1">
          <mxGeometry x="162.5" y="1460" width="60" height="30" as="geometry" />
        </mxCell>
        <mxCell id="tfgUsdt2ixnzsKASo8Zw-9" value="&amp;nbsp;" style="text;whiteSpace=wrap;html=1;" parent="1" vertex="1">
          <mxGeometry x="-190" y="1310" width="40" height="40" as="geometry" />
        </mxCell>
        <mxCell id="tfgUsdt2ixnzsKASo8Zw-13" value="&amp;nbsp;" style="text;whiteSpace=wrap;html=1;" parent="1" vertex="1">
          <mxGeometry x="860" y="1410" width="40" height="40" as="geometry" />
        </mxCell>
        <mxCell id="tfgUsdt2ixnzsKASo8Zw-20" value="&amp;nbsp;" style="text;whiteSpace=wrap;html=1;" parent="1" vertex="1">
          <mxGeometry x="270" y="750" width="40" height="40" as="geometry" />
        </mxCell>
        <mxCell id="KBEGa4izW0I-MYj9QVqM-14" value="&lt;b&gt;&lt;font style=&quot;font-size: 16px;&quot;&gt;Hardcoded parent&lt;/font&gt;&lt;/b&gt;" style="text;html=1;strokeColor=none;fillColor=none;align=center;verticalAlign=middle;whiteSpace=wrap;rounded=0;" vertex="1" parent="1">
          <mxGeometry x="540" y="1371" width="60" height="30" as="geometry" />
        </mxCell>
      </root>
    </mxGraphModel>
  </diagram>
</mxfile>
